<?xml version="1.0" encoding="UTF-8"?>
<svg id="Calque_2" data-name="Calque 2" xmlns="http://www.w3.org/2000/svg" viewBox="0 0 35.66 32.12">
  <defs>
    <style>
      .cls-1 {
        fill: #1e1e1c;
      }

      .cls-1, .cls-2 {
        stroke-width: 0px;
      }

      .cls-2 {
        fill: #fff;
      }
    </style>
  </defs>
  <g id="Mode_Isolation" data-name="Mode Isolation">
    <g>
      <path class="cls-1" d="M0,16.47C0,15.22,0,13.24,0,12.07c0-1.17.69-2.8,1.53-3.62.84-.82,4.08-1.49,7.19-1.49h18.11c3.12,0,6.38.68,7.24,1.52.87.84,1.58,3.42,1.58,5.74,0,2.32-.63,4.9-1.4,5.73-.77.83-3.95,1.5-7.07,1.5H8.51c-3.12,0-6.31-.62-7.08-1.36S0,17.71,0,16.47Z"/>
      <path class="cls-1" d="M10.76,6.12c-.52,0-.95-1.03-.95-2.3s.41-2.64.92-3.06c.5-.42,3.47-.76,6.59-.76h.99c3.12,0,6.1.32,6.63.7.53.39.96,1.76.95,3.04,0,1.29-.43,2.35-.93,2.36-.51,0-.95-.82-.98-1.84-.03-1.02-.27-2-.53-2.18-.26-.18-2.79-.3-5.63-.27-2.84.04-5.39.22-5.66.42-.28.2-.49,1.15-.47,2.12.02.97-.4,1.76-.92,1.76Z"/>
      <path class="cls-1" d="M.21,21.31c.12-.31.66-.15,1.2.36.54.5,1.9.92,3.02.92h28.43c.13,0,.7-.41,1.26-.92.56-.51,1.14-.71,1.28-.46.14.25.26,2.37.26,4.71s-.5,4.69-1.12,5.23c-.62.54-3.67.98-6.79.98H8.06c-3.12,0-6.21-.37-6.87-.83-.66-.46-1.2-2.76-1.2-5.12s.09-4.55.21-4.86Z"/>
      <path class="cls-2" d="M24.43,18.32h-13.15c-.59,0-1.07-.48-1.07-1.07h0c0-.59.48-1.07,1.07-1.07h13.15c.59,0,1.07.48,1.07,1.07h0c0,.59-.48,1.07-1.07,1.07Z"/>
    </g>
  </g>
</svg>