<?xml version="1.0" encoding="UTF-8"?>
<svg id="Calque_2" data-name="Calque 2" xmlns="http://www.w3.org/2000/svg" viewBox="0 0 32.89 36.85">
  <defs>
    <style>
      .cls-1 {
        stroke-width: 0px;
      }
    </style>
  </defs>
  <g id="Mode_Isolation" data-name="Mode Isolation">
    <g>
      <path class="cls-1" d="M18.61,36.78h-3.32c-.07-.85-.15-1.67-.21-2.49-.17-2.26-.35-4.52-.47-6.79-.03-.55-.39-.59-.81-.66-3.64-.64-7.28-1.28-10.92-1.93-.07-.01-.14-.04-.32-.1.07-.75.14-1.52.23-2.3.51-4.58,1.02-9.15,1.52-13.73.04-.34.13-.53.59-.51,1.67.07,3.34.08,5,.16.31.02.72.22.9.45,1.38,1.77,2.72,3.56,4.04,5.37.32.44.7.63,1.26.7,2.05.26,4.08.56,6.17.85v1.82h-.85c-2.71,0-5.41.01-8.11-.02-.31,0-.71-.19-.92-.4-.53-.54-.97-1.14-1.57-1.86-.05.39-.1.61-.12.84-.1,1.55-.18,3.09-.3,4.64-.04.44.15.57.59.67,2.45.54,4.89,1.11,7.33,1.68.27.06.53.13.85.21-.18,4.45-.37,8.88-.55,13.39Z"/>
      <path class="cls-1" d="M23.13,23.33h8.41v-3.9h-15.03v-1.1h16.38v6.13h-8.48v11.22h7.79v1.16h-9.08v-13.52Z"/>
      <path class="cls-1" d="M1.15,12.66c.46.04.86.07,1.3.1-.36,4.33-.7,8.59-1.06,12.91,4.13.66,8.2,1.31,12.3,1.96.18,3.05.37,6.07.55,9.16H1.12v-1.1h11.74c-.14-2.39-.28-4.71-.41-7.08-4.13-.66-8.22-1.31-12.45-1.99.38-4.62.76-9.24,1.15-13.97Z"/>
      <path class="cls-1" d="M12.08,3.5c-.03,1.88-1.78,3.4-3.89,3.38-2.15-.02-3.87-1.6-3.83-3.51C4.4,1.49,6.14-.02,8.26,0c2.16.02,3.85,1.57,3.82,3.5Z"/>
    </g>
  </g>
</svg>